<svg width="21" height="20" viewBox="0 0 21 20" fill="none" xmlns="http://www.w3.org/2000/svg">
<path d="M0.995098 17.9998H19.9961V19.9998H0.995098V17.9998ZM20.5311 6.15483L11.0311 0.154832C10.8712 0.0536897 10.6858 0 10.4966 0C10.3074 0 10.122 0.0536897 9.9621 0.154832L0.462098 6.15483C0.280004 6.27102 0.140426 6.44305 0.0642493 6.64518C-0.0119278 6.8473 -0.0206086 7.06867 0.0395055 7.27614C0.0996196 7.48361 0.225297 7.66604 0.397733 7.79613C0.570169 7.92623 0.780094 7.99699 0.996099 7.99783H19.9961C20.2128 7.99788 20.4236 7.92755 20.5969 7.79743C20.7701 7.66731 20.8964 7.48444 20.9568 7.27633C21.0171 7.06823 21.0082 6.84615 20.9315 6.64353C20.8547 6.44091 20.7142 6.2687 20.5311 6.15283V6.15483ZM2.9961 8.99983H5.9961V16.9998H2.9961V8.99983ZM8.9961 8.99983H11.9961V16.9998H8.9961V8.99983ZM14.9961 8.99983H17.9961V16.9998H14.9961V8.99983Z" fill="white"/>
</svg>
