<svg width="20" height="20" viewBox="0 0 20 20" fill="none" xmlns="http://www.w3.org/2000/svg">
<path fill-rule="evenodd" clip-rule="evenodd" d="M4.53333 0.365827C4.76753 0.13134 5.08526 -0.00054748 5.41667 -0.000839233H17.9167C18.2482 -0.000839233 18.5661 0.130857 18.8005 0.365277C19.035 0.599698 19.1667 0.91764 19.1667 1.24916V8.74916C19.1668 8.91338 19.1345 9.07602 19.0718 9.22777C19.009 9.37952 18.9169 9.51742 18.8008 9.63358C18.6848 9.74975 18.5469 9.84189 18.3952 9.90477C18.2435 9.96764 18.0809 10 17.9167 10H5.41667C5.08515 10 4.7672 9.8683 4.53278 9.63388C4.29836 9.39946 4.16667 9.08152 4.16667 8.75V1.24999C4.16667 0.919161 4.29833 0.599994 4.53333 0.365827ZM2.91667 3.33249V1.24999C2.91669 0.811147 3.03222 0.380036 3.25167 -5.89999e-06H2.08333C1.80975 -5.89999e-06 1.53884 0.0538811 1.28608 0.158578C1.03331 0.263276 0.80365 0.416733 0.610194 0.610188C0.219493 1.00089 0 1.53079 0 2.08333V17.9167C0 18.1902 0.053887 18.4612 0.158584 18.7139C0.263282 18.9667 0.416739 19.1963 0.610194 19.3898C0.80365 19.5833 1.03331 19.7367 1.28608 19.8414C1.53884 19.9461 1.80975 20 2.08333 20H9.58333V20.0017C9.60333 20.0017 9.6225 20.0017 9.64167 20H9.64917C10.1902 19.9829 10.7034 19.7559 11.0799 19.367C11.4565 18.9781 11.6669 18.458 11.6667 17.9167V12.1808C11.6667 11.9598 11.5789 11.7479 11.4226 11.5916C11.2663 11.4353 11.0543 11.3475 10.8333 11.3475C10.6123 11.3475 10.4004 11.4353 10.2441 11.5916C10.0878 11.7479 10 11.9598 10 12.1808V15.625C10.0002 15.6772 9.98079 15.7276 9.9456 15.7662C9.91041 15.8048 9.86202 15.8287 9.81 15.8333H1.875C1.81975 15.8333 1.76676 15.8114 1.72769 15.7723C1.68862 15.7332 1.66667 15.6802 1.66667 15.625V3.54166C1.66667 3.48641 1.68862 3.43342 1.72769 3.39435C1.76676 3.35528 1.81975 3.33333 1.875 3.33333L2.91667 3.33249ZM5.14 17.4533C5.01723 17.6372 4.97253 17.8623 5.01574 18.0792C5.05895 18.296 5.18653 18.4868 5.37042 18.6096C5.5543 18.7323 5.77942 18.777 5.99626 18.7338C6.2131 18.6906 6.40389 18.563 6.52667 18.3792C6.58746 18.2881 6.62972 18.186 6.65104 18.0786C6.67236 17.9712 6.67232 17.8607 6.65093 17.7533C6.62953 17.6459 6.58719 17.5438 6.52634 17.4528C6.46548 17.3618 6.3873 17.2837 6.29625 17.2229C6.2052 17.1621 6.10307 17.1199 5.99569 17.0985C5.8883 17.0772 5.77777 17.0773 5.6704 17.0987C5.56304 17.12 5.46093 17.1624 5.36993 17.2232C5.27892 17.2841 5.20079 17.3623 5.14 17.4533ZM12.1983 3.32249C12.0326 3.24388 11.8497 3.20861 11.6667 3.21999C11.3583 3.21999 11.0983 3.31916 10.9283 3.45166C10.7558 3.58499 10.7067 3.72083 10.7067 3.80999C10.7067 3.89749 10.7525 4.02583 10.9217 4.15333C11.0908 4.28083 11.3517 4.37833 11.6667 4.37833C12.225 4.37833 12.7558 4.54416 13.1617 4.84666C13.57 5.14999 13.8767 5.61749 13.8767 6.18833C13.8767 6.75833 13.57 7.22749 13.1642 7.53249C12.9142 7.72083 12.615 7.85749 12.2917 7.93416V8.17416C12.2917 8.33992 12.2258 8.49889 12.1086 8.6161C11.9914 8.73331 11.8324 8.79916 11.6667 8.79916C11.5009 8.79916 11.3419 8.73331 11.2247 8.6161C11.1075 8.49889 11.0417 8.33992 11.0417 8.17416V7.94083C10.5207 7.8127 10.0599 7.50899 9.73667 7.08083C9.6872 7.01533 9.65112 6.94073 9.63049 6.86129C9.60985 6.78185 9.60507 6.69912 9.6164 6.61784C9.62774 6.53654 9.65498 6.45828 9.69656 6.38752C9.73814 6.31676 9.79325 6.25488 9.85875 6.20541C9.92425 6.15595 9.99885 6.11987 10.0783 6.09923C10.1577 6.0786 10.2405 6.07381 10.3217 6.08515C10.403 6.09648 10.4813 6.12372 10.5521 6.1653C10.6228 6.20688 10.6847 6.262 10.7342 6.32749C10.8422 6.47052 10.984 6.58452 11.1469 6.65928C11.3097 6.73403 11.4886 6.76721 11.6675 6.75583C11.9842 6.75583 12.245 6.65916 12.4125 6.53333C12.5792 6.40833 12.6275 6.28083 12.6275 6.18833C12.6275 6.09666 12.5808 5.97166 12.415 5.84916C12.2483 5.72416 11.9858 5.62833 11.6667 5.62833C11.1042 5.62833 10.5733 5.45666 10.1683 5.15083C9.76417 4.84583 9.45667 4.37749 9.45667 3.81083C9.45667 3.24666 9.76167 2.77416 10.1625 2.46333C10.4125 2.26916 10.7133 2.12583 11.0417 2.04499V1.82499C11.0417 1.65923 11.1075 1.50026 11.2247 1.38305C11.3419 1.26584 11.5009 1.19999 11.6667 1.19999C11.8324 1.19999 11.9914 1.26584 12.1086 1.38305C12.2258 1.50026 12.2917 1.65923 12.2917 1.82499V2.03583C12.8125 2.16374 13.2733 2.46715 13.5967 2.89499C13.6461 2.96049 13.6822 3.03509 13.7028 3.11453C13.7235 3.19397 13.7283 3.2767 13.7169 3.35799C13.7056 3.43928 13.6784 3.51754 13.6368 3.5883C13.5952 3.65907 13.5401 3.72095 13.4746 3.77041C13.4091 3.81988 13.3345 3.85595 13.255 3.87659C13.1756 3.89722 13.0929 3.90201 13.0116 3.89067C12.9303 3.87934 12.852 3.8521 12.7813 3.81052C12.7105 3.76894 12.6486 3.71382 12.5992 3.64833C12.494 3.50909 12.3568 3.39731 12.1992 3.32249H12.1983Z" fill="white"/>
</svg>
