<svg width="49" height="42" viewBox="0 0 49 42" fill="none" xmlns="http://www.w3.org/2000/svg">
<g filter="url(#filter0_d_223_3398)">
<rect x="10.0513" y="10.0731" width="27.8551" height="21.1131" rx="2.74825" fill="url(#paint0_linear_223_3398)"/>
</g>
<path d="M36.5192 10.6378C36.6457 10.6378 36.7482 10.5353 36.7482 10.4088C36.7482 10.2823 36.6457 10.1798 36.5192 10.1798V10.6378ZM37.5243 17.0174H37.7534V16.5594H37.5243V17.0174ZM11.5179 30.7777L11.4032 30.9759V30.9759L11.5179 30.7777ZM10.4202 11.633L10.202 11.5633V11.5633L10.4202 11.633ZM18.0921 16.5594H10.7213V17.0174H18.0921V16.5594ZM18.0921 23.2748H10.7213V23.7328H18.0921V23.2748ZM29.4834 23.7328H37.5243V23.2748H29.4834V23.7328ZM29.8185 10.6378H36.5192V10.1798H29.8185V10.6378ZM23.4527 10.6378H29.4834V10.1798H23.4527V10.6378ZM17.087 10.6378H23.1177V10.1798H17.087V10.6378ZM23.2237 10.7446V11.0804H23.6817V10.7446H23.2237ZM22.4476 11.8586H19.0972V12.3167H22.4476V11.8586ZM17.8631 13.095V27.8688H18.3211V13.095H17.8631ZM28.3723 27.8688V17.7957H27.9142V27.8688H28.3723ZM29.1484 17.0174H37.5243V16.5594H29.1484V17.0174ZM27.9142 27.8688C27.9142 28.2991 27.5663 28.6471 27.1381 28.6471V29.1051C27.8202 29.1051 28.3723 28.5511 28.3723 27.8688H27.9142ZM17.8631 27.8688C17.8631 28.5511 18.4152 29.1051 19.0972 29.1051V28.6471C18.6691 28.6471 18.3211 28.2991 18.3211 27.8688H17.8631ZM19.0972 11.8586C18.4152 11.8586 17.8631 12.4126 17.8631 13.095H18.3211C18.3211 12.6647 18.6691 12.3167 19.0972 12.3167V11.8586ZM28.3723 17.7957C28.3723 17.3654 28.7202 17.0174 29.1484 17.0174V16.5594C28.4663 16.5594 27.9142 17.1134 27.9142 17.7957H28.3723ZM23.2237 11.0804C23.2237 11.5107 22.8758 11.8586 22.4476 11.8586V12.3167C23.1297 12.3167 23.6817 11.7627 23.6817 11.0804H23.2237ZM23.2237 28.8761V30.8907H23.6817V28.8761H23.2237ZM36.1842 30.6617H11.9637V31.1197H36.1842V30.6617ZM11.6327 30.5795C11.4073 30.449 11.1413 30.2677 10.9349 30.0692C10.7173 29.8599 10.6153 29.6784 10.6153 29.5476H10.1572C10.1572 29.8794 10.3864 30.1771 10.6173 30.3993C10.8595 30.6322 11.1593 30.8347 11.4032 30.9759L11.6327 30.5795ZM10.6153 29.5476V11.873H10.1572V29.5476H10.6153ZM10.6384 11.7027C10.7069 11.488 10.8361 11.2124 11.0255 10.9951C11.2131 10.7799 11.4441 10.6378 11.7264 10.6378V10.1798C11.2708 10.1798 10.9237 10.4148 10.6803 10.6941C10.4386 10.9714 10.2836 11.3079 10.202 11.5633L10.6384 11.7027ZM11.7264 10.6378H16.752V10.1798H11.7264V10.6378ZM10.6153 11.873C10.6153 11.8074 10.6224 11.7528 10.6384 11.7027L10.202 11.5633C10.168 11.67 10.1572 11.774 10.1572 11.873H10.6153ZM11.9637 30.6617C11.8409 30.6617 11.7273 30.6343 11.6327 30.5795L11.4032 30.9759C11.5787 31.0776 11.7743 31.1197 11.9637 31.1197V30.6617ZM19.0972 29.1051H27.1381V28.6471H19.0972V29.1051Z" fill="black"/>
<defs>
<filter id="filter0_d_223_3398" x="10.0513" y="10.0731" width="28.313" height="21.5711" filterUnits="userSpaceOnUse" color-interpolation-filters="sRGB">
<feFlood flood-opacity="0" result="BackgroundImageFix"/>
<feColorMatrix in="SourceAlpha" type="matrix" values="0 0 0 0 0 0 0 0 0 0 0 0 0 0 0 0 0 0 127 0" result="hardAlpha"/>
<feOffset dx="0.458042" dy="0.458042"/>
<feComposite in2="hardAlpha" operator="out"/>
<feColorMatrix type="matrix" values="0 0 0 0 0.604232 0 0 0 0 0.604232 0 0 0 0 0.604232 0 0 0 1 0"/>
<feBlend mode="normal" in2="BackgroundImageFix" result="effect1_dropShadow_223_3398"/>
<feBlend mode="normal" in="SourceGraphic" in2="effect1_dropShadow_223_3398" result="shape"/>
</filter>
<linearGradient id="paint0_linear_223_3398" x1="37.1894" y1="10.4088" x2="10.6784" y2="30.8349" gradientUnits="userSpaceOnUse">
<stop stop-color="#FFC691"/>
<stop offset="0.347245" stop-color="#FFCFA3"/>
<stop offset="0.524405" stop-color="#FFCEA1"/>
<stop offset="0.776262" stop-color="#FFBD80"/>
<stop offset="1" stop-color="#FABB81"/>
</linearGradient>
</defs>
</svg>
