<svg width="25" height="29" viewBox="0 0 25 29" fill="none" xmlns="http://www.w3.org/2000/svg">
<path d="M15.407 5.38235C15.1822 5.34832 14.9447 5.40019 14.748 5.54746C14.3538 5.83931 14.2712 6.39672 14.5625 6.79179C16.0719 8.83834 16.9035 11.4938 16.9035 14.27C16.9035 17.0462 16.0719 19.7025 14.5625 21.7499C14.2712 22.145 14.3538 22.7024 14.748 22.9942C14.9061 23.1126 15.0914 23.168 15.2752 23.168C15.5478 23.168 15.8156 23.0432 15.9897 22.8083C17.7237 20.4565 18.6793 17.4243 18.6793 14.27C18.6793 11.1156 17.7237 8.08427 15.9897 5.73341C15.844 5.53632 15.6317 5.41639 15.407 5.38235ZM12.4208 7.19672C12.1956 7.16703 11.9598 7.22406 11.7653 7.37399C11.3764 7.67296 11.3023 8.23207 11.6006 8.6218C12.7131 10.074 13.3521 12.1327 13.3521 14.27C13.3521 16.4019 12.7165 18.4581 11.6075 19.9112C11.3101 20.3009 11.3842 20.8592 11.774 21.1573C11.9347 21.281 12.1234 21.3415 12.3116 21.3415C12.5779 21.3415 12.8416 21.2209 13.0174 20.9922C14.3776 19.2099 15.1278 16.8219 15.1278 14.27C15.1278 11.7109 14.3751 9.32052 13.0087 7.53735C12.8591 7.34248 12.646 7.22642 12.4208 7.19672ZM9.44507 8.97807C9.21833 8.96272 8.98595 9.03466 8.80171 9.19705C8.43236 9.52004 8.39529 10.0816 8.71848 10.4518C9.38616 11.217 9.80057 12.6799 9.80057 14.27C9.80057 15.8601 9.38531 17.3229 8.71674 18.0881C8.39445 18.4583 8.43236 19.0199 8.80171 19.3429C8.97041 19.4906 9.17924 19.5636 9.38611 19.5636C9.63383 19.5636 9.87969 19.4615 10.0555 19.2595C11.0073 18.1686 11.5763 16.3023 11.5763 14.27C11.5763 12.2377 11.0064 10.3714 10.0538 9.28046C9.89216 9.09494 9.67181 8.99342 9.44507 8.97807ZM6.30631 10.8776C6.07957 10.8628 5.84763 10.9346 5.66295 11.0966C5.29449 11.4205 5.25738 11.9821 5.58145 12.3513C6.00496 12.8363 6.24909 13.5359 6.24909 14.27C6.24909 15.0041 6.00496 15.7037 5.58145 16.1886C5.25826 16.5579 5.29622 17.1195 5.66469 17.4434C5.83338 17.5911 6.04132 17.6641 6.24909 17.6641C6.49503 17.6641 6.74181 17.5619 6.91672 17.3617C7.63235 16.5457 8.02483 15.4472 8.02483 14.27C8.02483 13.0928 7.63235 11.9942 6.91672 11.1783C6.75557 10.9936 6.53305 10.8924 6.30631 10.8776Z" fill="white"/>
</svg>
