<svg width="22" height="22" viewBox="0 0 22 22" fill="none" xmlns="http://www.w3.org/2000/svg">
<path d="M2 0.5H8.63965L9.52539 3.1582L9.63965 3.5H20C20.8239 3.5 21.5 4.17614 21.5 5V20C21.5 20.8239 20.8239 21.5 20 21.5H11.3604L10.4746 18.8418L10.3604 18.5H2C1.17614 18.5 0.5 17.8239 0.5 17V2C0.5 1.17614 1.17614 0.5 2 0.5ZM9.98633 4.66016L11.2666 8.4502L11.3809 8.79004H13.6797V7.5H13.9697V8.79004H18.5V9.08984H16.7305L16.6221 9.44336C16.1742 10.9013 15.412 12.273 14.3359 13.4658L14.3262 13.4766L13.9697 13.833L14.3291 14.1865L17.2695 17.082L17.0596 17.293L14.3135 14.5469L13.4863 15.0586L14.4385 17.8994L12.6094 20.1875L11.96 21H19.5C20.3261 21 21 20.3261 21 19.5V5.5C21 4.67386 20.3261 4 19.5 4H9.76367L9.98633 4.66016ZM6 4.5C2.96386 4.5 0.5 6.96386 0.5 10C0.5 13.0361 2.96386 15.5 6 15.5C7.56644 15.5 8.90064 14.9472 9.84277 13.9756C10.7832 13.0057 11.2997 11.653 11.2998 10.1104C11.2998 9.65274 11.2434 9.31363 11.168 8.97949L11.0801 8.58984H5.5V11.2998H8.28906C8.02075 11.9812 7.33122 12.71 6 12.71C4.54531 12.71 3.34961 11.5031 3.34961 10C3.34961 8.49688 4.54531 7.29004 6 7.29004C6.83454 7.29004 7.37728 7.63965 7.68652 7.93262L8.03223 8.26172L8.37695 7.93066L9.69629 6.66016L10.0801 6.29199L9.68848 5.93164C8.7317 5.05191 7.48256 4.5 6 4.5ZM11.6953 9.73828L12.4854 12.1084L12.5078 12.1748L12.5469 12.2324C12.8191 12.6304 13.1221 13.017 13.4453 13.3818L13.8164 13.7998L14.1914 13.3857C15.1777 12.2945 15.8913 11.0546 16.3428 9.74219L16.5703 9.08008H11.4766L11.6953 9.73828Z" fill="#0047B3" stroke="#0065FF"/>
</svg>
