<svg width="20" height="22" viewBox="0 0 20 22" fill="none" xmlns="http://www.w3.org/2000/svg">
<path d="M11.261 19.7665L16.7212 16.614C17.3041 16.2775 17.595 16.1092 17.8069 15.8738C17.9945 15.6655 18.1363 15.4202 18.2229 15.1536C18.3206 14.853 18.3206 14.5172 18.3206 13.8473V7.53311C18.3206 6.8632 18.3206 6.52737 18.2229 6.22681C18.1363 5.96025 17.9945 5.71471 17.8069 5.50643C17.5959 5.27204 17.3057 5.10448 16.7278 4.77086L11.26 1.61402C10.6771 1.27749 10.3863 1.10956 10.0764 1.0437C9.80226 0.985432 9.51883 0.985432 9.24467 1.0437C8.93483 1.10956 8.64299 1.27749 8.06011 1.61402L2.59883 4.76709C2.01663 5.10322 1.72575 5.27116 1.51392 5.50643C1.32637 5.71471 1.18474 5.96025 1.09813 6.22681C1.00024 6.52808 1.00024 6.86479 1.00024 7.53785V13.8428C1.00024 14.5159 1.00024 14.8523 1.09813 15.1536C1.18474 15.4202 1.32637 15.6655 1.51392 15.8738C1.72588 16.1092 2.01697 16.2775 2.59985 16.614L8.06011 19.7665C8.64298 20.103 8.93483 20.271 9.24467 20.3369C9.51883 20.3952 9.80226 20.3952 10.0764 20.3369C10.3863 20.271 10.6781 20.103 11.261 19.7665Z" stroke="#0065FF" stroke-width="2" stroke-linecap="round" stroke-linejoin="round"/>
<path d="M6.6604 10.6902C6.6604 12.347 8.00355 13.6902 9.6604 13.6902C11.3173 13.6902 12.6604 12.347 12.6604 10.6902C12.6604 9.03334 11.3173 7.69019 9.6604 7.69019C8.00355 7.69019 6.6604 9.03334 6.6604 10.6902Z" stroke="#0065FF" stroke-width="2" stroke-linecap="round" stroke-linejoin="round"/>
</svg>
